#!OML:ASF H:\Terrain\Patient Classification 1\Walking\liu\liu.ASF
:FULLY-SPECIFIED
:DEGREES
145
root 8.64886 15.9178 -16.5113 6.43952 8.31725 3.88475
lowerback -6.88703 -3.30203 -4.63408
upperback -1.15947 -4.12345 2.17401
thorax 3.14399 -2.11654 4.45206
lowerneck -19.2891 -5.90792 -13.9333
upperneck 17.534 -6.95664 12.8683
head 9.69814 -2.82132 5.85135
rclavicle -3.55328e-015 1.66979e-014
rhumerus -48.3939 4.32483 -81.9954
rradius 29.154
rwrist -16.1074
rhand -30.4539 -22.7852
rfingers 7.12502
rthumb -3.75576 -52.7318
lclavicle -3.55328e-015 1.66979e-014
lhumerus -34.9614 -3.19445 92.0113
lradius 19.511
lwrist -9.91437
lhand -13.8416 -24.008
lfingers 7.12502
lthumb 12.2818 5.61132
rfemur -41.8045 2.22917 15.0553
rtibia 39.1719
rfoot -6.0564 -4.14361
rtoes -16.5367
lfemur 27.3773 5.0968 -18.881
ltibia -1.90833e-014
lfoot 4.8559 -1.67879
ltoes -16.3041
146
root 8.62504 15.9421 -16.3405 6.33387 8.39766 3.77428
lowerback -6.70238 -3.33005 -4.48069
upperback -1.19587 -4.17962 2.16963
thorax 2.99824 -2.1388 4.36608
lowerneck -19.1496 -5.84383 -13.8855
upperneck 17.4414 -6.90924 12.9459
head 9.63456 -2.79264 5.87736
rclavicle 2.61775e-014 6.36111e-015
rhumerus -48.281 4.04734 -81.5819
rradius 29.0163
rwrist -15.4798
rhand -28.6832 -22.6736
rfingers 7.12502
rthumb -2.0457 -52.6435
lclavicle 2.61775e-014 6.36111e-015
lhumerus -35.4446 -1.05978 90.857
lradius 18.8876
lwrist -11.2673
lhand -10.7122 -22.5588
lfingers 7.12502
lthumb 15.2978 6.85545
rfemur -41.1341 2.08707 15.462
rtibia 39.4544
rfoot -6.40959 -3.59537
rtoes -16.4894
lfemur 27.8005 5.31061 -18.4848
ltibia 9.54166e-015
lfoot 6.76512 -1.19476
ltoes -17.1508
147
root 8.60538 15.9781 -16.1805 6.39854 8.71553 3.50146
lowerback -6.46331 -3.39565 -4.09769
upperback -1.34787 -4.30497 2.23298
thorax 2.69801 -2.18838 4.2218
lowerneck -19.3145 -5.86526 -13.7652
upperneck 17.6063 -6.94155 12.8298
head 9.71759 -2.80603 5.81296
rclavicle -8.07811e-014 1.19271e-014
rhumerus -48.2623 4.15347 -81.5836
rradius 28.6693
rwrist -14.519
rhand -27.892 -22.6034
rfingers 7.12502
rthumb -1.28159 -52.5793
lclavicle -8.07811e-014 1.19271e-014
lhumerus -36.0325 0.408799 90.1236
lradius 18.0952
lwrist -11.0566
lhand -10.5468 -22.7345
lfingers 7.12502
lthumb 15.457 6.66751
rfemur -40.5828 1.75939 16.0304
rtibia 39.6187
rfoot -6.94467 -3.22125
rtoes -16.8414
lfemur 27.9269 5.32738 -17.955
ltibia 3.18055e-015
lfoot 8.74653 -0.516601
ltoes -16.7545
148
root 8.57898 16.0141 -16.0262 6.40451 9.00999 2.86884
lowerback -6.31326 -3.35846 -3.44245
upperback -1.34916 -4.30861 2.41203
thorax 2.57955 -2.18338 4.04829
lowerneck -19.5297 -5.95316 -13.784
upperneck 17.4145 -7.03664 12.9338
head 9.7099 -2.83277 5.83286
rclavicle -6.78353e-015 -2.46493e-014
rhumerus -48.1996 4.13714 -81.4114
rradius 28.6025
rwrist -13.7674
rhand -27.5896 -22.9098
rfingers 7.12502
rthumb -0.989513 -52.8873
lclavicle -6.78353e-015 -2.46493e-014
lhumerus -36.3306 1.23595 89.626
lradius 17.4853
lwrist -10.9178
lhand -10.332 -22.575
lfingers 7.12502
lthumb 15.6639 6.8109
rfemur -40.0067 1.60889 16.9634
rtibia 39.6535
rfoot -7.3143 -2.94987
rtoes -16.7063
lfemur 25.842 5.56626 -16.9228
ltibia 4.225
lfoot 9.10364 -0.156244
ltoes -15.0657
149
root 8.54908 16.0545 -15.8734 6.49765 9.12045 2.35045
lowerback -6.40317 -3.29498 -2.93734
upperback -1.24793 -4.25925 2.53783
thorax 2.70287 -2.15883 3.89203
lowerneck -19.9699 -6.04881 -13.7316
upperneck 17.1375 -7.13118 13.0626
head 9.71191 -2.84396 5.84614
rclavicle 3.77194e-014 -1.03368e-014
rhumerus -47.7449 3.63063 -80.8154
rradius 28.5956
rwrist -12.5696
rhand -26.4472 -21.9269
rfingers 7.12502
rthumb 0.11387 -51.9066
lclavicle 3.77194e-014 -1.03368e-014
lhumerus -36.6409 2.15975 88.9363
lradius 17.3695
lwrist -11.6305
lhand -7.83962 -20.8403
lfingers 7.12502
lthumb 18.0631 8.34089
rfemur -39.4434 1.64017 17.7263
rtibia 39.5057
rfoot -7.63855 -2.70495
rtoes -15.5156
lfemur 21.7316 6.16256 -15.9728
ltibia 12.274
lfoot 7.86322 -0.406308
ltoes -14.5499
150
root 8.51735 16.101 -15.7264 6.72405 9.25623 1.98173
lowerback -6.41817 -3.34518 -2.65153
upperback -1.30854 -4.34732 2.64063
thorax 2.64355 -2.19883 3.83084
lowerneck -20.1256 -6.01575 -13.6601
upperneck 17.0312 -7.10666 13.1963
head 9.70281 -2.80835 5.88369
rclavicle 3.2054e-015 -3.89618e-014
rhumerus -47.3493 3.79615 -80.8898
rradius 28.4633
rwrist -12.8186
rhand -26.4403 -17.6587
rfingers 7.12502
rthumb 0.120445 -47.6384
lclavicle 3.2054e-015 -3.89618e-014
lhumerus -37.1154 3.35617 88.086
lradius 17.1024
lwrist -12.7586
lhand -4.48185 -18.9168
lfingers 7.12502
lthumb 21.2912 9.93368
rfemur -38.9226 1.5152 18.3799
rtibia 39.1971
rfoot -8.2027 -2.44505
rtoes -14.7068
lfemur 18.9204 6.55274 -15.341
ltibia 17.4958
lfoot 7.60398 -0.164377
ltoes -13.4523
